<svg xmlns="http://www.w3.org/2000/svg" width="48" height="48" viewBox="0 0 48 48"><defs><style>.a{fill:#28293c;}.b{fill:none;}</style></defs><g transform="translate(139 -3251)"><path class="a" d="M34.094,11.356c.024.35.024.7.024,1.05,0,10.675-7.836,22.975-22.159,22.975A21.444,21.444,0,0,1,0,31.756a15.544,15.544,0,0,0,1.881.1,15.249,15.249,0,0,0,9.669-3.45,7.843,7.843,0,0,1-7.282-5.6,9.481,9.481,0,0,0,1.471.125,7.961,7.961,0,0,0,2.049-.275,8.009,8.009,0,0,1-6.245-7.925v-.1a7.634,7.634,0,0,0,3.52,1.025A8.151,8.151,0,0,1,1.591,8.931,8.241,8.241,0,0,1,2.652,4.856a21.888,21.888,0,0,0,16.058,8.45,9.438,9.438,0,0,1-.193-1.85,7.932,7.932,0,0,1,7.788-8.075A7.643,7.643,0,0,1,32,5.931a15.006,15.006,0,0,0,4.943-1.95,8.007,8.007,0,0,1-3.424,4.45A15.178,15.178,0,0,0,38,7.181a17.091,17.091,0,0,1-3.906,4.175Z" transform="translate(-134 3255.619)"/><rect class="b" width="48" height="48" transform="translate(-139 3251)"/></g></svg>