<svg xmlns="http://www.w3.org/2000/svg" width="48" height="48" viewBox="0 0 48 48"><defs><style>.a{fill:#fff;}.b{fill:#28293c;}.c{fill:none;}</style></defs><g transform="translate(160 -49)"><g transform="translate(0.418 -1.254)"><path class="a" d="M36.117,4.709C31.835.957,25.468,1.632,21.539,5.8L20,7.433,18.461,5.8C14.539,1.632,8.164.957,3.883,4.709a11.765,11.765,0,0,0-.773,16.706L18.226,37.47a2.4,2.4,0,0,0,3.539,0L36.882,21.415a11.758,11.758,0,0,0-.766-16.706Z" transform="translate(-156.417 54.002)"/><path class="b" d="M11.8,7.992a3.509,3.509,0,0,1-.2,1.183,2.3,2.3,0,0,1-.657.964,1.594,1.594,0,0,1-1.094.407,2.067,2.067,0,0,1-1.438-.6,3.729,3.729,0,0,1-.959-1.412,4.374,4.374,0,0,1-.313-1.574,3.509,3.509,0,0,1,.2-1.183A2.3,2.3,0,0,1,8,4.813,1.594,1.594,0,0,1,9.09,4.407a2.061,2.061,0,0,1,1.444.6,3.765,3.765,0,0,1,.954,1.407A4.357,4.357,0,0,1,11.8,7.992ZM8.236,13.027A2.433,2.433,0,0,1,7.8,14.476a1.433,1.433,0,0,1-1.24.615,2.239,2.239,0,0,1-1.475-.578A4.048,4.048,0,0,1,3.67,11.536a2.457,2.457,0,0,1,.438-1.454,1.429,1.429,0,0,1,1.24-.62,2.239,2.239,0,0,1,1.475.578,4.07,4.07,0,0,1,1.412,2.986Zm4.107-.281A4.677,4.677,0,0,1,15,13.762a9.277,9.277,0,0,1,2.387,2.47,4.935,4.935,0,0,1,.959,2.653,1.621,1.621,0,0,1-.177.8,1.085,1.085,0,0,1-.506.469,2.64,2.64,0,0,1-.672.208,4.863,4.863,0,0,1-.792.057,6,6,0,0,1-1.954-.469,5.96,5.96,0,0,0-1.9-.469,6.675,6.675,0,0,0-2.006.464,6.748,6.748,0,0,1-2.09.464q-1.907,0-1.907-1.522a4.329,4.329,0,0,1,.584-2,8.935,8.935,0,0,1,1.454-2.006,8.53,8.53,0,0,1,1.954-1.522,4.123,4.123,0,0,1,2.012-.615Zm2.491-2.2a1.594,1.594,0,0,1-1.094-.407,2.3,2.3,0,0,1-.657-.964,3.509,3.509,0,0,1-.2-1.183A4.357,4.357,0,0,1,13.2,6.413a3.765,3.765,0,0,1,.954-1.407,2.06,2.06,0,0,1,1.444-.6,1.594,1.594,0,0,1,1.094.407,2.3,2.3,0,0,1,.657.964,3.509,3.509,0,0,1,.2,1.183,4.373,4.373,0,0,1-.313,1.574,3.729,3.729,0,0,1-.959,1.412,2.067,2.067,0,0,1-1.438.6Zm4.5-1.084a1.429,1.429,0,0,1,1.24.62,2.457,2.457,0,0,1,.438,1.454A4.048,4.048,0,0,1,19.6,14.512a2.239,2.239,0,0,1-1.475.578,1.433,1.433,0,0,1-1.24-.615,2.433,2.433,0,0,1-.438-1.449,4.07,4.07,0,0,1,1.412-2.986,2.239,2.239,0,0,1,1.475-.578Z" transform="translate(-148.761 60.838)"/></g><rect class="c" width="48" height="48" transform="translate(-160 49)"/></g></svg>