<svg xmlns="http://www.w3.org/2000/svg" width="80" height="80" viewBox="0 0 80 80"><defs><style>.a{fill:#28293c;}.b{fill:#fff;}.c{fill:none;}</style></defs><g transform="translate(160 -49)"><g transform="translate(-153.917 58.119)"><path class="a" d="M61.248,6.47C53.988.033,43.191,1.191,36.527,8.344l-2.61,2.8-2.61-2.8C24.656,1.191,13.845.033,6.585,6.47A20.343,20.343,0,0,0,5.274,35.125L30.909,62.664a4.043,4.043,0,0,0,6,0L62.547,35.125a20.33,20.33,0,0,0-1.3-28.655Z" transform="translate(0.001 -2.248)"/><path class="b" d="M16.035,9.86a5.336,5.336,0,0,1-.3,1.8,3.5,3.5,0,0,1-1,1.466,2.425,2.425,0,0,1-1.664.618,3.143,3.143,0,0,1-2.188-.911,5.671,5.671,0,0,1-1.458-2.148,6.652,6.652,0,0,1-.476-2.394,5.336,5.336,0,0,1,.3-1.8,3.5,3.5,0,0,1,1-1.466,2.425,2.425,0,0,1,1.664-.618,3.134,3.134,0,0,1,2.2.911,5.726,5.726,0,0,1,1.45,2.14,6.627,6.627,0,0,1,.476,2.4Zm-5.421,7.656a3.7,3.7,0,0,1-.666,2.2,2.179,2.179,0,0,1-1.886.935,3.405,3.405,0,0,1-2.243-.88A6.157,6.157,0,0,1,3.67,15.249a3.736,3.736,0,0,1,.666-2.211,2.173,2.173,0,0,1,1.886-.943,3.405,3.405,0,0,1,2.243.88,6.189,6.189,0,0,1,2.148,4.541Zm6.246-.428A7.114,7.114,0,0,1,20.9,18.634a14.109,14.109,0,0,1,3.63,3.757,7.506,7.506,0,0,1,1.458,4.034,2.466,2.466,0,0,1-.269,1.213,1.65,1.65,0,0,1-.769.713,4.015,4.015,0,0,1-1.022.317,7.4,7.4,0,0,1-1.2.087,9.122,9.122,0,0,1-2.972-.713,9.064,9.064,0,0,0-2.893-.713,10.152,10.152,0,0,0-3.051.705,10.262,10.262,0,0,1-3.178.705q-2.9,0-2.9-2.314a6.584,6.584,0,0,1,.888-3.036,13.589,13.589,0,0,1,2.211-3.051A12.973,12.973,0,0,1,13.8,18.024a6.27,6.27,0,0,1,3.059-.935Zm3.789-3.345a2.425,2.425,0,0,1-1.664-.618,3.5,3.5,0,0,1-1-1.466,5.336,5.336,0,0,1-.3-1.8,6.627,6.627,0,0,1,.476-2.4,5.726,5.726,0,0,1,1.45-2.14,3.134,3.134,0,0,1,2.2-.911,2.425,2.425,0,0,1,1.664.618,3.5,3.5,0,0,1,1,1.466,5.336,5.336,0,0,1,.3,1.8,6.651,6.651,0,0,1-.476,2.394,5.672,5.672,0,0,1-1.458,2.148,3.143,3.143,0,0,1-2.188.911ZM27.5,12.095a2.173,2.173,0,0,1,1.886.943,3.736,3.736,0,0,1,.666,2.211A6.157,6.157,0,0,1,27.9,19.775a3.405,3.405,0,0,1-2.243.88,2.179,2.179,0,0,1-1.886-.935,3.7,3.7,0,0,1-.666-2.2,6.189,6.189,0,0,1,2.148-4.541,3.405,3.405,0,0,1,2.243-.88Z" transform="translate(17.058 12.424)"/></g><rect class="c" width="80" height="80" transform="translate(-160 49)"/></g></svg>